<?xml version="1.0" standalone="no"?>
<!DOCTYPE svg PUBLIC "-//W3C//DTD SVG 20010904//EN"
 "http://www.w3.org/TR/2001/REC-SVG-20010904/DTD/svg10.dtd">
<svg version="1.0" xmlns="http://www.w3.org/2000/svg"
 width="1024.000000pt" height="1024.000000pt" viewBox="0 0 1024.000000 1024.000000"
 preserveAspectRatio="xMidYMid meet">

<g transform="translate(0.000000,1024.000000) scale(0.100000,-0.100000)"
fill="#000000" stroke="none">
<path d="M5021 9025 c4 -37 4 -85 2 -106 l-6 -39 -52 0 c-154 0 -434 -40 -660
-95 -297 -72 -536 -163 -811 -308 -281 -148 -414 -237 -649 -431 -700 -579
-1201 -1543 -1270 -2441 -3 -44 -8 -96 -11 -115 l-5 -35 -128 3 -129 4 2 -151
1 -151 127 0 c150 0 134 20 143 -175 24 -527 232 -1135 555 -1620 204 -307
360 -487 625 -724 388 -346 883 -620 1401 -775 216 -64 552 -124 797 -142 l87
-6 0 -141 0 -142 131 0 132 0 -8 149 c-4 98 -3 146 3 142 17 -10 246 13 432
44 293 49 635 150 875 257 145 65 432 221 547 296 243 160 560 446 760 687
236 285 444 625 570 935 129 313 224 716 243 1020 3 55 8 121 11 148 l6 47
124 0 124 0 0 151 0 150 -125 -3 -125 -3 0 33 c0 158 -65 531 -136 779 -87
304 -269 700 -447 971 -176 269 -278 395 -491 608 -285 285 -456 418 -736 577
-243 137 -362 189 -645 285 -284 96 -690 172 -923 172 l-73 0 3 100 3 100 -90
0 c-49 0 -113 3 -141 6 l-50 6 7 -67z m19 -589 c0 -78 -4 -137 -10 -141 -5 -3
-60 -10 -122 -15 -354 -29 -797 -157 -1098 -317 -216 -114 -442 -265 -588
-391 -379 -328 -716 -834 -881 -1329 -242 -720 -210 -1481 88 -2126 257 -555
691 -1043 1186 -1334 356 -210 687 -331 1080 -397 112 -19 315 -37 326 -30 5
3 9 -64 9 -150 l0 -156 -27 0 c-50 0 -295 30 -450 56 -301 49 -679 184 -958
341 -159 90 -417 265 -543 370 -334 275 -650 676 -839 1063 -156 320 -243 604
-288 940 -27 206 -40 553 -26 692 40 395 107 701 213 968 43 108 125 293 155
348 131 239 257 426 402 597 85 101 352 361 444 433 311 242 674 440 1002 545
124 40 313 91 395 108 98 19 403 57 468 58 l62 1 0 -134z m405 124 c383 -36
731 -131 1095 -300 417 -194 829 -512 1100 -852 187 -234 405 -595 509 -843
203 -484 290 -959 262 -1429 -43 -733 -270 -1321 -731 -1895 -348 -432 -823
-773 -1355 -971 -194 -71 -351 -116 -567 -159 -166 -34 -365 -61 -445 -61 -23
0 -23 1 -23 153 l0 153 148 12 c473 39 989 226 1417 515 377 255 751 697 976
1155 137 280 208 524 281 967 20 123 14 485 -12 665 -40 288 -127 584 -246
840 -123 267 -255 484 -403 665 -253 310 -412 457 -696 645 -412 272 -857 419
-1407 466 l-68 6 0 71 c0 40 -3 102 -7 140 l-6 67 34 0 c19 0 84 -5 144 -10z
m105 -564 c125 -20 367 -79 465 -114 111 -39 326 -137 427 -193 331 -185 626
-447 835 -739 241 -338 379 -633 477 -1016 57 -222 69 -326 69 -604 1 -321
-18 -467 -99 -755 -47 -170 -66 -221 -141 -385 -176 -380 -375 -637 -730 -942
-159 -137 -360 -263 -565 -355 -136 -61 -408 -156 -490 -172 -29 -5 -97 -19
-152 -31 -230 -49 -484 -61 -734 -35 -465 49 -879 198 -1248 450 -210 145
-289 208 -434 354 -160 161 -258 283 -358 447 -231 378 -335 678 -383 1104
-19 174 -17 520 4 659 19 120 68 344 92 421 84 270 235 573 400 805 264 370
585 645 993 849 201 101 329 148 543 201 157 39 221 50 379 69 88 10 550 -3
650 -18z"/>
<path d="M4940 7819 c-516 -67 -1028 -287 -1365 -587 -118 -105 -275 -264
-337 -342 -116 -144 -275 -409 -352 -586 -177 -409 -245 -905 -181 -1329 22
-147 84 -383 139 -528 67 -179 226 -450 361 -617 111 -137 154 -183 260 -275
181 -159 210 -180 463 -338 224 -141 544 -257 851 -309 164 -28 207 -32 371
-32 185 1 359 20 529 59 148 34 448 144 591 215 129 65 414 264 545 380 153
136 234 233 388 462 183 274 257 442 327 738 115 488 112 848 -10 1271 -34
119 -103 303 -142 382 -42 85 -145 255 -188 312 -21 28 -57 82 -80 120 -101
167 -347 422 -533 553 -197 139 -503 287 -742 361 -252 79 -664 120 -895 90z
m547 -214 c465 -67 859 -265 1258 -630 77 -70 149 -132 161 -137 20 -10 19
-12 -30 -62 -28 -28 -84 -88 -125 -134 l-74 -83 -15 30 c-18 39 -205 219 -316
305 -218 170 -537 323 -771 369 -291 57 -515 58 -791 2 -263 -53 -483 -147
-730 -314 -118 -78 -174 -125 -269 -220 -66 -67 -124 -120 -130 -120 -5 1 -58
52 -117 113 l-106 111 51 56 c118 129 235 228 464 396 17 12 78 47 135 77 245
130 526 217 812 252 136 16 446 11 593 -11z m-197 -1150 c107 -120 268 -293
395 -425 72 -74 202 -211 289 -305 88 -93 163 -170 168 -170 5 0 25 21 46 47
20 26 127 140 237 255 110 115 269 287 353 383 202 231 335 378 344 379 7 1
15 -1545 10 -2154 l-3 -410 -87 85 c-78 76 -125 130 -214 247 l-28 36 0 598
c0 330 -3 599 -8 599 -4 0 -23 -25 -41 -56 -19 -32 -79 -105 -135 -163 -56
-59 -144 -153 -196 -210 -52 -57 -137 -141 -189 -187 l-94 -83 -65 62 c-81 79
-267 278 -447 481 l-140 157 -5 -778 c-3 -428 -8 -785 -12 -793 -3 -8 -9 -27
-12 -42 -5 -24 -12 -28 -39 -28 -25 0 -47 -13 -99 -58 -36 -31 -93 -76 -126
-99 l-59 -42 -6 52 c-4 29 -10 675 -13 1436 l-7 1385 65 -70 c35 -38 89 -96
118 -129z m-1015 36 c173 -36 338 -117 470 -231 33 -29 74 -61 92 -72 l32 -19
-102 -97 c-56 -53 -124 -118 -151 -144 l-49 -48 -61 46 c-75 57 -169 105 -261
134 -87 27 -247 30 -347 6 -234 -55 -463 -258 -532 -470 -77 -235 -37 -495
103 -681 100 -132 199 -206 338 -251 81 -27 100 -29 233 -29 131 0 152 3 221
27 42 15 112 48 157 74 l81 48 3 154 3 155 -242 -8 -243 -7 0 196 0 196 424 0
424 0 6 -62 c3 -35 7 -247 8 -471 l3 -408 -47 -27 c-26 -15 -91 -57 -145 -94
-112 -76 -296 -159 -416 -188 -210 -50 -411 -33 -642 55 -247 94 -438 281
-581 570 -71 144 -96 257 -101 465 -6 214 10 329 65 486 55 156 118 257 230
369 199 200 384 303 597 334 113 16 333 12 430 -8z m2492 -2410 c54 -54 109
-106 122 -114 l24 -16 -37 -45 c-44 -54 -243 -239 -341 -318 -217 -173 -551
-343 -802 -407 -234 -60 -566 -86 -795 -62 -238 24 -531 108 -727 208 -135 69
-343 202 -455 291 -130 104 -274 232 -306 272 l-32 40 106 105 c98 97 126 119
126 97 0 -5 17 -17 39 -26 22 -10 71 -53 114 -100 130 -143 326 -279 557 -390
221 -105 364 -141 678 -168 156 -14 313 -2 512 39 291 59 563 192 808 392 109
90 292 272 292 291 0 23 24 5 117 -89z"/>
<path d="M7883 8192 c-51 -53 -93 -99 -93 -102 0 -3 35 -40 78 -82 43 -41 134
-137 201 -212 68 -75 126 -136 129 -136 3 0 37 31 76 68 39 38 82 76 96 85
l25 18 -96 92 c-109 104 -253 263 -294 325 -15 23 -28 42 -29 42 0 -1 -43 -45
-93 -98z"/>
<path d="M2316 8253 c-8 -16 -72 -89 -142 -163 -70 -74 -153 -162 -185 -196
l-57 -61 96 -85 c95 -83 97 -85 111 -64 26 38 217 249 294 324 l74 73 -54 56
c-29 31 -63 74 -75 96 -29 51 -43 56 -62 20z"/>
<path d="M2120 2885 c-8 -15 -56 -67 -107 -115 l-92 -87 69 -58 c99 -82 265
-257 310 -326 l38 -58 37 56 c21 31 65 85 99 119 l61 63 -73 67 c-64 58 -177
184 -292 324 l-35 43 -15 -28z"/>
<path d="M8144 2872 c-39 -61 -139 -174 -251 -285 l-120 -119 77 -76 c42 -43
86 -90 98 -107 l21 -30 18 25 c9 13 72 85 139 160 100 112 160 171 257 250 5
4 -14 22 -42 39 -27 18 -79 63 -115 101 l-64 69 -18 -27z"/>
</g>
</svg>
